<?xml version="1.0" encoding="UTF-8"?>
<svg id="Capa_1" data-name="Capa 1" xmlns="http://www.w3.org/2000/svg" viewBox="0 0 818.6 285.13">
  <defs>
    <style>
      .cls-1 {
        fill: #fff;
      }

      .cls-2 {
        fill: #ffff21;
      }

      .cls-3 {
        fill: red;
      }

      .cls-4 {
        fill: #333;
      }

      .cls-5 {
        fill: #999;
      }
    </style>
  </defs>
  <path d="M556.26,155.1c-1.07-3.66-2.78-6.97-5.1-9.84-2.41-2.97-5.42-5.37-8.97-7.14-2.04-1.02-4.18-1.75-6.38-2.21l.76-3.85,2.6-13.27,2.92-14.87h-5.51l1.09-5.5h5.57l2.02-10,2.69-13.27,3.03-14.94h-78.7l-1.43,7.14c-1.86-2.03-4.05-3.7-6.57-4.94-3-1.47-6.23-2.21-9.59-2.21h-41.42c-3.46,0-6.76.79-9.76,2.27l.45-2.27h-89.97l-1.27,6.37c-1.68-1.69-3.64-3.08-5.84-4.16-3-1.47-6.25-2.21-9.68-2.21h-39.47c-5.1,0-9.89,1.68-13.85,4.85-4.07,3.26-6.74,7.71-7.74,12.87l-5.19,25.98h-25.44l5.74-28.79,2.97-14.91h-112.41l-1.24,6.18c-1.64-1.6-3.52-2.94-5.64-3.98-3-1.47-6.25-2.21-9.68-2.21H20.18l-2,10.02-11.39,56.97-2.98,14.92h18.97l-.65,3.23-15.81,79.06-2.98,14.92h49.74l2.07-9.92,1.55-7.44,1.75,7.67,2.22,9.69h39.72l.05-.08-.02.08h49.53l1.86-9.29c2.28,2.81,5.14,5.09,8.5,6.73,3.46,1.7,7.27,2.56,11.29,2.56h57.37c5.97,0,11.57-1.96,16.21-5.67,4.73-3.79,7.85-8.98,9.02-15.02l7.96-39.96h17.34l-9.11,45.74-2.97,14.91h51.73l2.01-10.01,10.19-50.64h15.65l-6.03,29.9-.02.09-.02.09c-.72,3.89-.57,7.76.46,11.51.97,3.55,2.59,6.76,4.81,9.55,2.31,2.91,5.24,5.25,8.69,6.94,3.46,1.7,7.27,2.56,11.29,2.56h57.37c5.97,0,11.57-1.96,16.21-5.67,2.33-1.87,4.27-4.08,5.78-6.56.51.8,1.07,1.56,1.67,2.3,2.4,2.97,5.43,5.38,8.98,7.15,3.68,1.84,7.68,2.78,11.89,2.78h51.61c6.31,0,12.22-2.11,17.09-6.09,4.89-3.99,8.13-9.38,9.36-15.57l3.95-19.73c.83-4.06.74-8.07-.28-11.93-.18-.69-.39-1.36-.62-2.03h4.1l2.08-9.9,1.36-6.44v-.06s.03-.06.03-.06c.85-4.24.69-8.42-.48-12.42ZM407.59,178.68l-3.47,17.3h-11.41l3.47-17.3h11.41ZM213.02,178.68l-3.47,17.3h-11.41l3.47-17.3h11.41ZM429.08,103.92l1.1-5.5h1.11l-1.1,5.5h-1.11ZM453.96,144.7c-.88-1.07-1.86-2.03-2.89-2.94,3.58-.65,6.92-2.16,9.82-4.48,1.56-1.25,2.92-2.68,4.05-4.26.23.32.44.64.68.95.9,1.13,1.92,2.15,3.03,3.07-2.73,1.02-5.3,2.48-7.63,4.39-2.06,1.69-3.81,3.63-5.26,5.77-.55-.86-1.14-1.7-1.79-2.49ZM93.75,131.98c.43.68.89,1.35,1.4,1.98,1.54,1.94,3.4,3.57,5.52,4.88l-1.69,3.38-7.5,15.01-2.04-11.59-1.5-8.51c.82-.55,1.62-1.13,2.37-1.76,1.24-1.03,2.39-2.17,3.45-3.39ZM61.89,98.42l-1.09,5.5h-6.82l1.09-5.5h6.82Z"/>
  <g>
    <path d="M541.43,77.99c-6.41-3.15-6.87-12.13-.8-15.89,26-16.11,85.84-48.74,146.83-50.91,79.51-2.83,117.13,45.33,122.15,82.94.18,1.37,1.29,2.43,2.67,2.5h0c1.5.07,2.69,1.31,2.69,2.81l.3,115.04s-.15,11.53-14.87,32.77c-11.26,16.25-19.41,24.24-22.62,27.1-.88.79-2.15.93-3.19.38-16.64-8.84-151.56-80.38-186.28-93.47-14.87-5.46-22.45-8.19-25.79-30.65-2.96-19.89-5.91-55.96-6.55-63.94-.08-.99-.68-1.86-1.57-2.3l-12.98-6.38Z"/>
    <path class="cls-2" d="M570.35,157.44c-4.06-14.11-7.66-75.55-7.66-75.55l-16.01-7.13S653.94.12,733.43,22.58c0,0,65.69,18.96,72.06,77.52,0,0-76.01-6.14-119.47-20.25-9.79-2.96-15.25,7.74-15.25,7.74,0,0-3.41,9.1,3.87,22.76,7.28,13.65,22.07,39.14,22.07,39.14l110.37,61.67s-4.6,29.56-32.17,54.99c-55.3-28.22-163.76-84.12-163.76-84.12,0,0-34.58-10.67-40.81-24.58Z"/>
    <path class="cls-4" d="M809.59,105.1v95.58l-51.66-27.76s-31.18-12.74-34.82-74.41c42.1,7.51,86.47,6.6,86.47,6.6Z"/>
    <path class="cls-1" d="M551,74.36s87.06-56.98,149.92-54.5c62.86,2.49,92.26,47.94,92.26,47.94,0,0-33.01-43.64-94.52-44.32-61.51-.68-134.09,56.08-134.09,56.08l-13.57-5.2Z"/>
    <polygon class="cls-5" points="806.46 106.86 807.99 197.13 800.46 192.61 804.67 106.82 806.46 106.86"/>
    <path class="cls-5" d="M724.94,100.1s1.37,30.72,15.02,52.79c8.65,12.52,19.57,18.66,19.57,18.66l-9.1-67.81s-15.02-1.59-25.49-3.64Z"/>
    <polygon points="565.95 83.87 670.65 143.14 567.46 101.77 565.95 83.87"/>
    <path d="M805.59,211.46l-110.35-56.88,104.89,73.05s3.98-9.01,5.46-16.18Z"/>
  </g>
  <polygon points="770.99 275.43 725.48 252.04 5.37 252.04 770.99 275.43"/>
  <polygon class="cls-3" points="703.67 247 694.26 257.84 76.92 251.91 703.67 247"/>
  <g>
    <g>
      <path class="cls-1" d="M71.5,129.66H19.01l11.39-56.97h54.85c1.52,0,2.92.31,4.19.94,1.27.62,2.33,1.46,3.17,2.52.84,1.06,1.45,2.27,1.83,3.62.38,1.36.43,2.77.16,4.23l-6.43,31.9c-.38,2.01-1.09,3.85-2.12,5.53-1.03,1.68-2.28,3.13-3.74,4.35-1.47,1.22-3.12,2.17-4.96,2.85-1.84.68-3.8,1.02-5.86,1.02ZM71.34,114.84l5.29-26.61c.11-.6-.01-1.12-.37-1.59-.35-.46-.83-.69-1.42-.69h-30l-6.05,30.44h30.68c.43,0,.83-.15,1.18-.45.35-.3.58-.66.69-1.1Z"/>
      <path class="cls-1" d="M124.72,94.99h30.44l-2.44,12.37h-30.52l-1.3,6.76c-.11.6.03,1.13.41,1.59.38.46.87.69,1.46.69h33.69l-2.6,13.27h-41.59c-1.52,0-2.92-.31-4.19-.94-1.28-.62-2.33-1.46-3.17-2.52-.84-1.06-1.45-2.28-1.83-3.66-.38-1.38-.43-2.81-.16-4.27l9.11-45.58h53.23l-2.69,13.27h-36.04l-1.81,9.03Z"/>
      <path class="cls-1" d="M168.65,129.66l11.39-56.97h18.96l-8.72,43.7h35.33l-2.69,13.27h-54.28Z"/>
      <path class="cls-1" d="M258.86,113.54l-3.26,16.11h-17.09l9.85-49.32c.43-2.28,1.53-4.12,3.3-5.53,1.76-1.41,3.78-2.12,6.06-2.12h39.47c1.52,0,2.92.31,4.19.94,1.27.62,2.33,1.46,3.17,2.52.84,1.06,1.45,2.27,1.83,3.62.38,1.36.41,2.77.08,4.23l-9.11,45.66h-17.09l3.25-16.11h-24.66ZM286.2,100.19l2.36-11.96c.11-.6-.03-1.12-.41-1.59-.38-.46-.87-.69-1.47-.69h-22.37l-2.86,14.24h24.74Z"/>
      <path class="cls-1" d="M371.65,72.69h17.09l-11.39,56.97h-29.38l-9.03-45.09-9.03,45.09h-17.09l11.39-56.97h29.46l9.03,45.09,8.95-45.09Z"/>
      <path class="cls-1" d="M454.68,72.69c1.46,0,2.83.31,4.11.94,1.27.62,2.35,1.46,3.21,2.52.87,1.06,1.49,2.27,1.87,3.62.38,1.36.41,2.77.08,4.23l-7.57,38.01c-.44,2.28-1.53,4.12-3.3,5.53-1.76,1.41-3.78,2.12-6.06,2.12h-41.34c-1.52,0-2.92-.31-4.19-.94-1.28-.62-2.33-1.46-3.17-2.52-.84-1.06-1.45-2.28-1.83-3.66-.38-1.38-.44-2.81-.16-4.27l7.65-37.93c.43-2.28,1.52-4.12,3.26-5.53,1.74-1.41,3.74-2.12,6.02-2.12h41.42ZM414.31,114.11c-.11.6.03,1.13.41,1.59.38.46.87.69,1.46.69h24.22l5.64-28.16c.11-.6-.03-1.12-.41-1.59-.38-.46-.87-.69-1.46-.69h-24.22l-5.65,28.16Z"/>
      <path class="cls-1" d="M495.19,94.99h30.44l-2.44,12.37h-30.52l-1.3,6.76c-.11.6.03,1.13.41,1.59.38.46.87.69,1.46.69h33.69l-2.6,13.27h-41.59c-1.52,0-2.92-.31-4.19-.94-1.28-.62-2.33-1.46-3.17-2.52-.84-1.06-1.45-2.28-1.83-3.66-.38-1.38-.43-2.81-.16-4.27l9.11-45.58h53.23l-2.69,13.27h-36.04l-1.81,9.03Z"/>
    </g>
    <g>
      <path class="cls-1" d="M92.96,226.86h-22.36l-14.46-63.25-13.21,63.25h-24.4l15.81-79.06h42.8l8.58,48.79,24.39-48.79h45.4l-15.81,79.06h-24.28l11.86-63.25-34.34,63.25Z"/>
      <path class="cls-1" d="M270.51,147.8h80.64l-3.73,18.41h-26.31l-12.2,60.65h-26.31l12.09-60.65h-27.9l3.73-18.41Z"/>
      <path class="cls-1" d="M453.93,209.47l1.24-6.32h23.72l-.45,2.15c-.15.83.04,1.56.56,2.2.53.64,1.2.96,2.03.96h30.51l.77-3.95,1.24-6.1c.15-.83-.04-1.56-.57-2.2-.53-.64-1.2-.96-2.03-.96h-36.59c-2.26,0-4.37-.49-6.33-1.47-1.96-.98-3.58-2.26-4.86-3.84-1.28-1.58-2.2-3.43-2.77-5.53-.57-2.11-.62-4.29-.17-6.55l3.61-18.41c.68-3.39,2.35-6.17,5.03-8.36,2.67-2.18,5.74-3.28,9.2-3.28h52.18c2.26,0,4.37.49,6.33,1.47,1.96.98,3.58,2.26,4.86,3.84,1.28,1.58,2.22,3.41,2.82,5.48.6,2.07.68,4.24.23,6.49l-1.36,6.44h-23.72l.45-2.15c.15-.83-.04-1.56-.57-2.2-.53-.64-1.21-.96-2.03-.96h-31.15l-.7,3.95-.9,4.74c-.15.83.04,1.56.57,2.2.52.64,1.2.96,2.03.96h35.46l2.15.11c2.18.15,4.16.73,5.93,1.75,1.77,1.02,3.26,2.31,4.46,3.9,1.2,1.58,2.07,3.37,2.6,5.37.53,2,.57,4.09.11,6.27l-3.95,19.76c-.68,3.39-2.35,6.18-5.03,8.36-2.67,2.18-5.74,3.28-9.21,3.28h-51.61c-2.26,0-4.37-.49-6.33-1.47-1.96-.98-3.58-2.26-4.86-3.84-1.28-1.58-2.2-3.43-2.77-5.53-.56-2.11-.62-4.29-.17-6.55Z"/>
      <path class="cls-1" d="M239.58,147.8c2.03,0,3.93.43,5.7,1.3,1.77.87,3.26,2.03,4.46,3.5,1.2,1.47,2.07,3.14,2.6,5.03.53,1.88.57,3.84.11,5.87l-10.5,52.74c-.6,3.16-2.13,5.72-4.58,7.68-2.45,1.96-5.25,2.94-8.41,2.94h-57.37c-2.11,0-4.05-.43-5.82-1.3-1.77-.86-3.24-2.03-4.4-3.5-1.17-1.47-2.02-3.16-2.54-5.08-.53-1.92-.6-3.9-.23-5.93l10.62-52.63c.6-3.16,2.11-5.72,4.52-7.68,2.41-1.96,5.2-2.94,8.36-2.94h57.49ZM183.56,205.29c-.15.83.04,1.56.57,2.2.52.64,1.2.96,2.03.96h33.62l7.83-39.08c.15-.83-.04-1.56-.57-2.2-.53-.64-1.2-.96-2.03-.96h-33.61l-7.84,39.08Z"/>
      <path class="cls-1" d="M434.15,147.8c2.03,0,3.93.43,5.7,1.3,1.77.87,3.26,2.03,4.46,3.5,1.2,1.47,2.07,3.14,2.6,5.03.53,1.88.57,3.84.11,5.87l-10.5,52.74c-.6,3.16-2.13,5.72-4.58,7.68-2.45,1.96-5.25,2.94-8.41,2.94h-57.37c-2.11,0-4.05-.43-5.82-1.3-1.77-.86-3.24-2.03-4.4-3.5-1.17-1.47-2.02-3.16-2.54-5.08-.53-1.92-.6-3.9-.23-5.93l10.62-52.63c.6-3.16,2.11-5.72,4.52-7.68,2.41-1.96,5.2-2.94,8.36-2.94h57.49ZM378.13,205.29c-.15.83.04,1.56.57,2.2.52.64,1.2.96,2.03.96h33.62l7.83-39.08c.15-.83-.04-1.56-.57-2.2-.53-.64-1.2-.96-2.03-.96h-33.61l-7.84,39.08Z"/>
    </g>
  </g>
</svg>